<svg width="365" height="365" viewBox="0 0 365 365" fill="none" xmlns="http://www.w3.org/2000/svg">
<g clip-path="url(#clip0_336_3287)">
<path d="M0 0H365V365H0V0Z" fill="#CCCCCC"/>
<path d="M183 182.1C217.3 182.1 245.1 154.3 245.1 120C245.1 85.7 217.3 58 183 58C148.7 58 120.9 85.8 120.9 120.1C120.9 154.4 148.7 182.1 183 182.1ZM226.4 197.6H218.3C207.5 202.5 195.6 205.4 182.9 205.4C170.2 205.4 158.4 202.6 147.5 197.6H139.4C103.4 197.6 74.2002 226.8 74.2002 262.8V283C74.2002 295.9 84.6002 306.3 97.5002 306.3H268.2C281.1 306.3 291.5 295.9 291.5 283V262.8C291.6 226.8 262.4 197.6 226.4 197.6Z" fill="white"/>
</g>
<defs>
<clipPath id="clip0_336_3287">
<rect width="365" height="365" fill="white"/>
</clipPath>
</defs>
</svg>
