<svg width="79" height="79" viewBox="0 0 79 79" fill="none" xmlns="http://www.w3.org/2000/svg">
<path d="M32.0114 26.2093C30.6364 26.0843 29.4204 27.0976 29.2954 28.4727C29.1704 29.8477 30.1837 31.0637 31.5588 31.1887L32.0114 26.2093ZM48.7579 30.242L51.2476 30.0157C51.1384 28.8138 50.1861 27.8615 48.9842 27.7523L48.7579 30.242ZM47.8111 47.4411C47.9361 48.8162 49.1522 49.8295 50.5272 49.7045C51.9022 49.5795 52.9156 48.3635 52.7906 46.9884L47.8111 47.4411ZM28.4744 46.99C27.498 47.9663 27.498 49.5492 28.4744 50.5255C29.4507 51.5018 31.0336 51.5018 32.0099 50.5255L28.4744 46.99ZM31.5588 31.1887L48.5315 32.7317L48.9842 27.7523L32.0114 26.2093L31.5588 31.1887ZM46.2681 30.4683L47.8111 47.4411L52.7906 46.9884L51.2476 30.0157L46.2681 30.4683ZM46.9901 28.4742L28.4744 46.99L32.0099 50.5255L50.5256 32.0098L46.9901 28.4742ZM66.625 39.5C66.625 54.4807 54.4807 66.625 39.5 66.625V71.625C57.2421 71.625 71.625 57.2421 71.625 39.5H66.625ZM39.5 66.625C24.5193 66.625 12.375 54.4807 12.375 39.5H7.375C7.375 57.2421 21.7579 71.625 39.5 71.625V66.625ZM12.375 39.5C12.375 24.5193 24.5193 12.375 39.5 12.375V7.375C21.7579 7.375 7.375 21.7579 7.375 39.5H12.375ZM39.5 12.375C54.4807 12.375 66.625 24.5193 66.625 39.5H71.625C71.625 21.7579 57.2421 7.375 39.5 7.375V12.375Z" fill="#6B6B6B"/>
</svg>
