<svg width="39" height="39" viewBox="0 0 39 39" fill="none" xmlns="http://www.w3.org/2000/svg">
<g clip-path="url(#clip0_2725_1147)">
<path d="M38.6758 19.582C38.6758 8.90128 30.0186 0.244141 19.3379 0.244141C8.65714 0.244141 0 8.90128 0 19.582C0 29.2343 7.07155 37.2345 16.3164 38.6843V25.1705H11.4071V19.5792H16.3164V15.3186C16.3164 10.473 19.202 7.79522 23.6207 7.79522C25.7358 7.79522 27.9507 8.17222 27.9507 8.17222V12.9318H25.5113C23.1079 12.9318 22.3594 14.4232 22.3594 15.9506V19.5792H27.7234L26.8668 25.1705H22.3622V38.6843C31.607 37.2345 38.6785 29.2343 38.6785 19.582H38.6758Z" fill="#1877F2"/>
<path d="M26.864 25.1736L27.7206 19.5823H22.3567V15.9537C22.3567 14.4235 23.1051 12.9349 25.5085 12.9349H27.9479V8.17534C27.9479 8.17534 25.7358 7.79834 23.6179 7.79834C19.1993 7.79834 16.3136 10.4761 16.3136 15.3217V19.5823H11.4043V25.1736H16.3136V38.6873C17.2977 38.8426 18.3067 38.923 19.3351 38.923C20.3635 38.923 21.3726 38.8426 22.3567 38.6873V25.1736H26.8613H26.864Z" fill="#EDEDED"/>
</g>
<defs>
<clipPath id="clip0_2725_1147">
<rect width="39" height="39" fill="white"/>
</clipPath>
</defs>
</svg>
