<svg width="39" height="39" viewBox="0 0 39 39" fill="none" xmlns="http://www.w3.org/2000/svg">
<path d="M38.6758 19.582C38.6758 8.90128 30.0186 0.244141 19.3379 0.244141C8.65714 0.244141 0 8.90128 0 19.582C0 29.2343 7.07155 37.2345 16.3164 38.6843V25.1705H11.4071V19.5792H16.3164V15.3186C16.3164 10.473 19.202 7.79522 23.6207 7.79522C25.7358 7.79522 27.9507 8.17222 27.9507 8.17222V12.9318H25.5113C23.1079 12.9318 22.3594 14.4232 22.3594 15.9506V19.5792H27.7234L26.8668 25.1705H22.3622V38.6843C31.607 37.2345 38.6785 29.2343 38.6785 19.582H38.6758Z" fill="#BD1826"/>
<path d="M26.864 25.1734L27.7206 19.5821H22.3567V15.9535C22.3567 14.4233 23.1051 12.9347 25.5085 12.9347H27.9479V8.1751C27.9479 8.1751 25.7358 7.7981 23.6179 7.7981C19.1993 7.7981 16.3136 10.4759 16.3136 15.3215V19.5821H11.4043V25.1734H16.3136V38.6871C17.2977 38.8424 18.3067 38.9228 19.3351 38.9228C20.3635 38.9228 21.3726 38.8424 22.3567 38.6871V25.1734H26.8613H26.864Z" fill="#EDEDED"/>
</svg>
