<svg width="40" height="39" viewBox="0 0 40 39" fill="none" xmlns="http://www.w3.org/2000/svg">
<path d="M20.0163 38.9199C30.6964 38.9199 39.3542 30.262 39.3542 19.582C39.3542 8.902 30.6964 0.244141 20.0163 0.244141C9.33633 0.244141 0.678467 8.902 0.678467 19.582C0.678467 30.262 9.33633 38.9199 20.0163 38.9199Z" fill="#BD1826"/>
<path d="M26.0185 12.2664C25.2839 12.2664 24.688 12.8623 24.688 13.5969C24.688 14.3315 25.2839 14.9275 26.0185 14.9275C26.7531 14.9275 27.3491 14.3315 27.3491 13.5969C27.3491 12.8623 26.7531 12.2664 26.0185 12.2664Z" fill="#EDEDED"/>
<path d="M20.1086 13.9712C17.0288 13.9712 14.5256 16.4771 14.5256 19.5541C14.5256 22.6311 17.0316 25.137 20.1086 25.137C23.1856 25.137 25.6915 22.6311 25.6915 19.5541C25.6915 16.4771 23.1856 13.9712 20.1086 13.9712ZM20.1086 23.1328C18.1349 23.1328 16.5326 21.5278 16.5326 19.5569C16.5326 17.586 18.1377 15.9809 20.1086 15.9809C22.0795 15.9809 23.6845 17.586 23.6845 19.5569C23.6845 21.5278 22.0795 23.1328 20.1086 23.1328Z" fill="#EDEDED"/>
<path d="M24.5405 30.8917H15.4869C11.7308 30.8917 8.67603 27.8369 8.67603 24.0808V15.0273C8.67603 11.2711 11.7308 8.21631 15.4869 8.21631H24.5405C28.2966 8.21631 31.3515 11.2711 31.3515 15.0273V24.0808C31.3515 27.8369 28.2966 30.8917 24.5405 30.8917ZM15.4869 10.3508C12.9089 10.3508 10.8105 12.4492 10.8105 15.0273V24.0808C10.8105 26.6588 12.9089 28.7573 15.4869 28.7573H24.5405C27.1185 28.7573 29.2169 26.6588 29.2169 24.0808V15.0273C29.2169 12.4465 27.1185 10.3508 24.5405 10.3508H15.4869Z" fill="#EDEDED"/>
</svg>
