<svg width="40" height="40" viewBox="0 0 40 40" fill="none" xmlns="http://www.w3.org/2000/svg">
<circle cx="19.7322" cy="19.6504" r="19.3779" fill="#D9D9D9"/>
<g clip-path="url(#clip0_2132_839)">
<path d="M20.0581 0.138672C9.35761 0.138672 0.680176 8.8161 0.680176 19.5166C0.680176 30.2171 9.35761 38.8945 20.0581 38.8945C30.7586 38.8945 39.436 30.2171 39.436 19.5166C39.436 8.8161 30.7586 0.138672 20.0581 0.138672ZM14.4271 29.4327H9.7077V15.2342H14.4271V29.4327ZM12.0675 13.2954H12.0368C10.4531 13.2954 9.42887 12.2052 9.42887 10.8427C9.42887 9.44946 10.4845 8.38943 12.0989 8.38943C13.7133 8.38943 14.7068 9.44946 14.7376 10.8427C14.7376 12.2052 13.7133 13.2954 12.0675 13.2954ZM31.4443 29.4327H26.7255V21.8368C26.7255 19.9279 26.0422 18.626 24.3346 18.626C23.0309 18.626 22.2544 19.5042 21.9132 20.3519C21.7884 20.6553 21.758 21.0793 21.758 21.5036V29.4327H17.0389C17.0389 29.4327 17.1007 16.5663 17.0389 15.2342H21.758V17.2446C22.3851 16.2771 23.5073 14.901 26.0111 14.901C29.1161 14.901 31.4443 16.9303 31.4443 21.2913V29.4327Z" fill="#BD1826"/>
</g>
<defs>
<clipPath id="clip0_2132_839">
<rect width="38.7559" height="38.7559" fill="white" transform="translate(0.680176 0.138672)"/>
</clipPath>
</defs>
</svg>
