<svg xmlns="http://www.w3.org/2000/svg" version="1.1" xmlns:xlink="http://www.w3.org/1999/xlink" width="512" height="512" x="0" y="0" viewBox="0 0 512 512" style="enable-background:new 0 0 512 512" xml:space="preserve" class=""><g><path d="M492.522 118.3 266.433 3.743l-.094-.047c-10.067-5.012-22.029-4.9-32.002.3L137.368 55.46c-.788.334-1.545.739-2.27 1.205L18.896 118.337C7.24 124.44 0 136.398 0 149.559V362.44c0 13.161 7.24 25.118 18.896 31.221l215.345 114.292.097.051a35.255 35.255 0 0 0 16.297 3.981 35.232 35.232 0 0 0 15.704-3.682l226.183-114.604C504.538 387.69 512 375.618 512 362.18V149.82c0-13.439-7.462-25.512-19.478-31.52zM248.237 30.569a5.26 5.26 0 0 1 4.705-.042l211.629 107.23-82.364 41.005L175.308 69.275l72.929-38.706zM235.424 474.63 32.91 367.147l-.097-.051a5.237 5.237 0 0 1-2.824-4.656V163.091l205.435 107.124V474.63zm15.153-230.335L46.272 137.76l97.024-51.493L349.171 195.21l-98.594 49.085zm231.432 117.883a5.22 5.22 0 0 1-2.911 4.703L265.414 475.152V270.408l98.386-48.982v51.355c0 8.281 6.714 14.995 14.995 14.995s14.995-6.714 14.995-14.995v-66.286l88.219-43.92v199.603z" fill="#ffffff" opacity="1" data-original="#000000" class=""></path></g></svg>