<svg width="103" height="103" viewBox="0 0 103 103" fill="none" xmlns="http://www.w3.org/2000/svg">
<path d="M20.1709 75.9625C15.8792 71.2417 13.3042 66.0916 13.3042 57.5083C13.3042 42.4875 24.0334 29.1833 39.0542 22.3167L42.9167 27.8958C28.7542 35.6208 25.75 45.4917 24.8917 51.9292C27.0375 50.6417 30.0417 50.2125 33.0459 50.6417C40.7709 51.5 46.7792 57.5083 46.7792 65.6625C46.7792 69.525 45.0625 73.3875 42.4875 76.3916C39.4834 79.3958 36.05 80.6833 31.7584 80.6833C27.0375 80.6833 22.7459 78.5375 20.1709 75.9625ZM63.0875 75.9625C58.7959 71.2417 56.2209 66.0916 56.2209 57.5083C56.2209 42.4875 66.95 29.1833 81.9709 22.3167L85.8334 27.8958C71.6709 35.6208 68.6667 45.4917 67.8084 51.9292C69.9542 50.6417 72.9584 50.2125 75.9625 50.6417C83.6875 51.5 89.6959 57.5083 89.6959 65.6625C89.6959 69.525 87.9792 73.3875 85.4042 76.3916C82.8292 79.3958 78.9667 80.6833 74.675 80.6833C69.9542 80.6833 65.6625 78.5375 63.0875 75.9625Z" fill="url(#paint0_linear_1682_469)"/>
<defs>
<linearGradient id="paint0_linear_1682_469" x1="51.5" y1="22.3167" x2="51.5" y2="80.6833" gradientUnits="userSpaceOnUse">
<stop stop-color="#1062D6"/>
<stop offset="1" stop-color="#3688EF"/>
</linearGradient>
</defs>
</svg>
