<svg xmlns="http://www.w3.org/2000/svg" version="1.1" xmlns:xlink="http://www.w3.org/1999/xlink" width="512" height="512" x="0" y="0" viewBox="0 0 682.667 682.667" style="enable-background:new 0 0 512 512" xml:space="preserve" class=""><g><defs><clipPath id="a" clipPathUnits="userSpaceOnUse"><path d="M0 512h512V0H0Z" fill="#bd1826" opacity="1" data-original="#000000"></path></clipPath></defs><g clip-path="url(#a)" transform="matrix(1.33333 0 0 -1.33333 0 682.667)"><path d="M0 0v-18.167c0-8.284-6.716-15-15-15h-44c-7.18 0-13 5.82-13 13v155c0 8.284 6.716 15 15 15h42c8.284 0 15-6.716 15-15V35" style="stroke-width:15;stroke-linecap:round;stroke-linejoin:round;stroke-miterlimit:10;stroke-dasharray:none;stroke-opacity:1" transform="translate(245.5 180.667)" fill="none" stroke="#bd1826" stroke-width="15" stroke-linecap="round" stroke-linejoin="round" stroke-miterlimit="10" stroke-dasharray="none" stroke-opacity="" data-original="#000000" opacity="1" class=""></path><path d="M0 0h15.764A29.998 29.998 0 0 1 31.87 4.69l40.974 26.074A50 50 0 0 1 96 72.947V96.5c0 15.188 12.312 27.5 27.5 27.5v0c15.188 0 27.5-12.312 27.5-27.5l.06-91.503a5 5 0 0 1 5-4.997H217.961c12.2 0 22.591-9.487 23.024-21.679C241.441-34.48 231.199-45 218.5-45h18c12.699 0 22.941-10.52 22.485-23.321C258.552-80.513 248.161-90 235.961-90H218.5c12.699 0 22.941-10.52 22.485-23.321-.433-12.192-10.824-21.679-23.024-21.679H191.5c9.553 0 17.319-7.655 17.497-17.166.184-9.807-8.147-17.834-17.956-17.834H39.353a49.995 49.995 0 0 0-24.658 6.503L0-155.167" style="stroke-width:15;stroke-linecap:round;stroke-linejoin:round;stroke-miterlimit:10;stroke-dasharray:none;stroke-opacity:1" transform="translate(245.5 314.5)" fill="none" stroke="#bd1826" stroke-width="15" stroke-linecap="round" stroke-linejoin="round" stroke-miterlimit="10" stroke-dasharray="none" stroke-opacity="" data-original="#000000" opacity="1" class=""></path><path d="M0 0h-41" style="stroke-width:15;stroke-linecap:round;stroke-linejoin:round;stroke-miterlimit:10;stroke-dasharray:none;stroke-opacity:1" transform="translate(464 269.5)" fill="none" stroke="#bd1826" stroke-width="15" stroke-linecap="round" stroke-linejoin="round" stroke-miterlimit="10" stroke-dasharray="none" stroke-opacity="" data-original="#000000" opacity="1" class=""></path><path d="M0 0h-41" style="stroke-width:15;stroke-linecap:round;stroke-linejoin:round;stroke-miterlimit:10;stroke-dasharray:none;stroke-opacity:1" transform="translate(464 224.5)" fill="none" stroke="#bd1826" stroke-width="15" stroke-linecap="round" stroke-linejoin="round" stroke-miterlimit="10" stroke-dasharray="none" stroke-opacity="" data-original="#000000" opacity="1" class=""></path><path d="M0 0h-13" style="stroke-width:15;stroke-linecap:round;stroke-linejoin:round;stroke-miterlimit:10;stroke-dasharray:none;stroke-opacity:1" transform="translate(436 179.5)" fill="none" stroke="#bd1826" stroke-width="15" stroke-linecap="round" stroke-linejoin="round" stroke-miterlimit="10" stroke-dasharray="none" stroke-opacity="" data-original="#000000" opacity="1" class=""></path><path d="M0 0c-25.477-59.303-84.414-100.835-153.051-100.835v0c-91.955 0-166.5 74.545-166.5 166.5v150a5 5 0 0 0 5 5h2c49.706 0 90 40.294 90 90v8.5a5 5 0 0 0 5 5h129a5 5 0 0 0 5-5v-10.833c0-49.706 40.295-90 90-90" style="stroke-width:15;stroke-linecap:round;stroke-linejoin:round;stroke-miterlimit:10;stroke-dasharray:none;stroke-opacity:1" transform="translate(327.05 144.335)" fill="none" stroke="#bd1826" stroke-width="15" stroke-linecap="round" stroke-linejoin="round" stroke-miterlimit="10" stroke-dasharray="none" stroke-opacity="" data-original="#000000" opacity="1" class=""></path><path d="M0 0v-94 0c-75.111 0-136 60.889-136 135.999V173.5c52.375 0 94.833 42.458 94.833 94.833v3.167H0V198" style="stroke-width:15;stroke-linecap:round;stroke-linejoin:round;stroke-miterlimit:10;stroke-dasharray:none;stroke-opacity:1" transform="translate(173.5 167.5)" fill="none" stroke="#bd1826" stroke-width="15" stroke-linecap="round" stroke-linejoin="round" stroke-miterlimit="10" stroke-dasharray="none" stroke-opacity="" data-original="#000000" opacity="1" class=""></path><path d="M0 0h-42.5c-6.627 0-12-5.373-12-12v-129c0-6.627 5.373-12 12-12H0" style="stroke-width:15;stroke-linecap:round;stroke-linejoin:round;stroke-miterlimit:10;stroke-dasharray:none;stroke-opacity:1" transform="translate(173 315.5)" fill="none" stroke="#bd1826" stroke-width="15" stroke-linecap="round" stroke-linejoin="round" stroke-miterlimit="10" stroke-dasharray="none" stroke-opacity="" data-original="#000000" opacity="1" class=""></path></g></g></svg>