<svg width="512" height="512" viewBox="0 0 512 512" fill="none" xmlns="http://www.w3.org/2000/svg">
<path d="M225.252 335.115L257.673 348.627L210.83 388.625L225.252 335.115ZM442.675 151.097L373.265 336.094C368.276 346.175 365.454 354.924 362.297 358.258C360.721 359.976 359.441 360.801 356.21 361.37C353.03 361.899 347.585 361.694 339.621 359.623L238.711 317.468L442.675 151.097ZM402.489 124.905L149.094 279.945L60.8142 241.482C57.6683 239.622 56.0583 237.727 55.4724 236.425C54.8466 235.059 54.8182 234.268 55.4098 232.67C56.6272 229.473 62.7826 222.885 77.4713 218.977C77.551 218.977 77.6135 218.948 77.7046 218.948L395.088 127.033L402.489 124.905ZM476.08 81.5332C475.938 81.5332 475.79 81.5332 475.637 81.5332C474.334 81.6242 473.06 81.92 471.871 82.4491L389.057 106.428L71.8734 198.263C71.845 198.263 71.845 198.292 71.8222 198.292L71.6402 198.32C53.0318 203.344 40.0157 212.332 35.1744 225.189C32.7623 231.669 32.9728 239.058 35.823 245.299C38.6731 251.568 43.7874 256.558 50.176 260.227C50.5344 260.437 50.8928 260.608 51.2683 260.762L141.193 299.964L161.82 363.44C163.539 369.237 169.728 372.52 175.514 370.654C181.282 368.759 184.371 362.524 182.323 356.819L162.822 296.744L432.299 131.851L211.194 312.178C211.132 312.229 211.103 312.263 211.046 312.32C208.577 314.214 207.093 317.11 206.939 320.21L180.929 416.654C178.199 426.854 190.327 434.426 198.372 427.594L198.673 427.355C198.736 427.304 198.793 427.241 198.849 427.179L279.91 357.934L332.402 379.847C332.846 380.052 333.289 380.206 333.744 380.319C343.842 383.016 352.256 383.807 359.777 382.538C367.297 381.269 373.709 377.549 378.055 372.907C386.765 363.622 388.989 352.836 392.767 345.293C392.92 344.94 393.068 344.61 393.188 344.223L485.763 97.5303C485.763 97.5019 485.763 97.5019 485.763 97.4677C487.231 94.811 487.464 91.648 486.451 88.7808C486.093 87.7739 485.586 86.8011 484.938 85.942C484.818 85.7884 484.693 85.6462 484.574 85.4926C484.483 85.3504 484.375 85.2309 484.25 85.1172C484.13 84.9692 483.982 84.8213 483.84 84.7019C483.721 84.5824 483.595 84.4686 483.504 84.3435C483.362 84.224 483.203 84.1102 483.026 83.9908C481.075 82.3637 478.612 81.5047 476.08 81.5332Z" fill="white"/>
</svg>
